# xmcd
#
# Track frame offsets:
# 150
# 11750
# 20502
# 30515
# 38072
# 47852
# 59132
# 70667
# 86760
# 101200
# 116245
# 123035
# 138450
# 153487
# 165562
# 177122
# 189455
# 204205
# 219047
#
# Disc length: 3085 seconds
#
#
# Revision: 0
# Processed by: cddbd v1.5.1PL0 Copyright (c) Steve Scherf et al.
# Submitted via: FreeRIP 2.941 
#
DISCID=030c0b13
DTITLE=Tibagi e Miltinho - Grandes sucessos
DYEAR=1900
DGENRE=Sertanejo
TTITLE0=O vale do Rio Vermelho
TTITLE1=Bis para o amor
TTITLE2=Orgulho
TTITLE3=Beija-me com ternura
TTITLE4=Sagrado coração
TTITLE5=Coração Solitário
TTITLE6=Teu Adeus
TTITLE7=Pombinha Branca
TTITLE8=A saudade é meu Castigo
TTITLE9=Noite triste
TTITLE10=Um pouquinho de amor
TTITLE11=Pranto amargo
TTITLE12=Uma lágrima
TTITLE13=Velhos Amigos
TTITLE14=O apito de trem
TTITLE15=Segue teu caminho
TTITLE16=Teu castigo
TTITLE17=Taça vazia
TTITLE18=Todinha pra mim
EXTD=
EXTT0=
EXTT1=
EXTT2=
EXTT3=
EXTT4=
EXTT5=
EXTT6=
EXTT7=
EXTT8=
EXTT9=
EXTT10=
EXTT11=
EXTT12=
EXTT13=
EXTT14=
EXTT15=
EXTT16=
EXTT17=
EXTT18=
PLAYORDER=
